<svg id="Layer_1" data-name="Layer 1" xmlns="http://www.w3.org/2000/svg" viewBox="0 0 450.4 233.55"><defs><style>.cls-1{isolation:isolate;}.cls-2{fill:#fff;}</style></defs><title>AndFive</title><path d="M142.4,195.23V14.75c1.92-.23,3.16-0.57,4.41-0.57,39.78,0,79.56-1.7,119.11.45,48.14,2.71,95.83,28.48,107.13,87,7,36,3.62,71.08-19.44,101.71-16.61,22.15-39.89,34.24-66.45,40a160.09,160.09,0,0,1-32.89,3.5c-35,.45-70.06.11-105.1,0.11-1.81.11-3.84,0.11-6.78,0.11V201.78M150,240.21h6.55c32.43,0,64.75.34,97.19-.23a156.12,156.12,0,0,0,36.16-4.52c33.9-8.7,59.89-27.57,72.21-61.59,8.36-23.28,9-47.35,4.18-71.53-4-19.66-12.54-37.07-27.35-50.63-22.71-20.91-50.29-30.17-80.8-30.51-33.9-.45-67.8-0.11-101.71-0.11h-6.33C150,94.2,150,166.75,150,240.21Z" transform="translate(-39.4 -13.55)"/><path d="M377.25,133.75c-0.11-2-.23-3.84-0.34-6.1H489.8v6.1H377.25Z" transform="translate(-39.4 -13.55)"/><path class="cls-1" d="M0,0" transform="translate(-39.4 -13.55)"/><path class="cls-2" d="M39.85,83.6v-8h101v8h-101Zm99.9-6.7H40.65v5.4h99.1V76.9Z" transform="translate(-39.4 -13.55)"/><path d="M139.75,76.9v5.4H40.65V76.9h99.1Z" transform="translate(-39.4 -13.55)"/><path class="cls-1" d="M0,0" transform="translate(-39.4 -13.55)"/><path class="cls-2" d="M39.95,136v-8h101v8h-101Zm99.9-6.7H40.75v5.4h99.1v-5.4Z" transform="translate(-39.4 -13.55)"/><path d="M139.85,129.31v5.4H40.75v-5.4h99.1Z" transform="translate(-39.4 -13.55)"/><path class="cls-2" d="M39.7,188.43v-8h101v8H39.7Zm99.9-6.7H40.5v5.4h99.1v-5.4Z" transform="translate(-39.4 -13.55)"/><path d="M139.6,181.73v5.4H40.5v-5.4h99.1Z" transform="translate(-39.4 -13.55)"/><path class="cls-2" d="M39.4,241.7v-8h101v8H39.4Zm99.9-6.7H40.2v5.4h99.1V235Z" transform="translate(-39.4 -13.55)"/><path d="M139.3,235v5.4H40.2V235h99.1Z" transform="translate(-39.4 -13.55)"/><path class="cls-2" d="M39.55,31.1v-8h101v8h-101Zm99.9-6.7H40.35v5.4h99.1V24.4Z" transform="translate(-39.4 -13.55)"/><path d="M139.45,24.4v5.4H40.35V24.4h99.1Z" transform="translate(-39.4 -13.55)"/></svg>