<svg id="Layer_1" data-name="Layer 1" xmlns="http://www.w3.org/2000/svg" viewBox="0 0 411 206.67"><defs><style>.cls-1{isolation:isolate;}.cls-2{fill:#fff;}</style></defs><title>AndFour</title><path d="M133.4,190.2V30.5c1.7-.2,2.8-0.5,3.9-0.5,35.2,0,70.4-1.5,105.4.4,42.6,2.4,84.8,25.2,94.8,77,6.2,31.9,3.2,62.9-17.2,90-14.7,19.6-35.3,30.3-58.8,35.4a141.66,141.66,0,0,1-29.1,3.1c-31,.4-62,0.1-93,0.1-1.6.1-3.4,0.1-6,.1V196m6.7,34h5.8c28.7,0,57.3.3,86-.2a138.15,138.15,0,0,0,32-4c30-7.7,53-24.4,63.9-54.5,7.4-20.6,8-41.9,3.7-63.3-3.5-17.4-11.1-32.8-24.2-44.8-20.1-18.5-44.5-26.7-71.5-27-30-.4-60-0.1-90-0.1h-5.6C140.1,100.8,140.1,165,140.1,230Z" transform="translate(-30.7 -29.44)"/><path d="M342.1,135.8c-0.1-1.8-.2-3.4-0.3-5.4h99.9v5.4H342.1Z" transform="translate(-30.7 -29.44)"/><path d="M130.9,53.2v5.5H32V53.2h98.9Z" transform="translate(-30.7 -29.44)"/><path class="cls-1" d="M0,0" transform="translate(-30.7 -29.44)"/><path class="cls-2" d="M30.85,108.6v-8h101v8h-101Zm99.9-6.7H31.65v5.4h99.1v-5.4Z" transform="translate(-30.7 -29.44)"/><path d="M130.75,101.9v5.4H31.65v-5.4h99.1Z" transform="translate(-30.7 -29.44)"/><path class="cls-1" d="M0,0" transform="translate(-30.7 -29.44)"/><path class="cls-2" d="M30.95,161v-8h101v8h-101Zm99.9-6.7H31.75v5.4h99.1v-5.4Z" transform="translate(-30.7 -29.44)"/><path d="M130.85,154.31v5.4H31.75v-5.4h99.1Z" transform="translate(-30.7 -29.44)"/><path class="cls-2" d="M30.7,213.43v-8h101v8H30.7Zm99.9-6.7H31.5v5.4h99.1v-5.4Z" transform="translate(-30.7 -29.44)"/><path d="M130.6,206.73v5.4H31.5v-5.4h99.1Z" transform="translate(-30.7 -29.44)"/></svg>