<?xml version="1.0" encoding="utf-8"?>
<!-- Generator: Adobe Illustrator 19.2.1, SVG Export Plug-In . SVG Version: 6.00 Build 0)  -->
<svg version="1.1" id="Layer_1" xmlns="http://www.w3.org/2000/svg" xmlns:xlink="http://www.w3.org/1999/xlink" x="0px" y="0px"
	 viewBox="0 0 477 260" style="enable-background:new 0 0 477 260;" xml:space="preserve">
<style type="text/css">
	.st0{fill:none;enable-background:new    ;}
	.st1{fill:#FFFFFF;}
</style>
<g>
	<path d="M133.4,236.1c0-13.8,0-26.7,0-40.1c-32.5,0-64.4,0-96.5,0c0-2.1,0-3.7,0-5.8c32,0,63.9,0,96.5,0c0-53.5,0-106.5,0-159.7
		c1.7-0.2,2.8-0.5,3.9-0.5c35.2,0,70.4-1.5,105.4,0.4c42.6,2.4,84.8,25.2,94.8,77c6.2,31.9,3.2,62.9-17.2,90
		c-14.7,19.6-35.3,30.3-58.8,35.4c-9.5,2.1-19.3,3-29.1,3.1c-31,0.4-62,0.1-93,0.1C137.8,236.1,136,236.1,133.4,236.1z M140.1,230
		c2.2,0,4,0,5.8,0c28.7,0,57.3,0.3,86-0.2c10.7-0.2,21.6-1.3,32-4c30-7.7,53-24.4,63.9-54.5c7.4-20.6,8-41.9,3.7-63.3
		c-3.5-17.4-11.1-32.8-24.2-44.8c-20.1-18.5-44.5-26.7-71.5-27c-30-0.4-60-0.1-90-0.1c-1.8,0-3.6,0-5.6,0
		C140.1,100.8,140.1,165,140.1,230z"/>
	<path d="M342.1,135.8c-0.1-1.8-0.2-3.4-0.3-5.4c33.4,0,66.5,0,99.9,0c0,1.8,0,3.5,0,5.4C408.5,135.8,375.5,135.8,342.1,135.8z"/>
	<path d="M130.9,70.2c0,2,0,3.6,0,5.5c-32.9,0-65.8,0-98.9,0c0-1.8,0-3.5,0-5.5C64.9,70.2,97.6,70.2,130.9,70.2z"/>
</g>
<path class="st0" d="z"/>
<g>
	<g>
		<path class="st1" d="M31,137c0-2.7,0-5.3,0-8c33.7,0,67.3,0,101,0c0,2.7,0,5.3,0,8C98.3,137,64.7,137,31,137z M130.9,130.3
			c-33.4,0-66.2,0-99.1,0c0,2,0,3.6,0,5.4c33.1,0,66,0,99.1,0C130.9,133.8,130.9,132.2,130.9,130.3z"/>
		<path d="M130.9,130.3c0,1.9,0,3.5,0,5.4c-33,0-65.9,0-99.1,0c0-1.8,0-3.4,0-5.4C64.7,130.3,97.5,130.3,130.9,130.3z"/>
	</g>
</g>
<path class="st0" d="z"/>
</svg>
