<svg id="Layer_1" data-name="Layer 1" xmlns="http://www.w3.org/2000/svg" viewBox="0 0 406.9 192.42"><defs><style>.cls-1{isolation:isolate;}.cls-2{fill:#fff;}</style></defs><title>NandThree</title><path class="cls-1" d="M0,0" transform="translate(-39.55 -21.55)"/><path class="cls-2" d="M39.85,123.6v-8h101v8h-101Zm99.9-6.7H40.65v5.4h99.1v-5.4Z" transform="translate(-39.55 -21.55)"/><path d="M139.75,116.9v5.4H40.65v-5.4h99.1Z" transform="translate(-39.55 -21.55)"/><path class="cls-1" d="M0,0" transform="translate(-39.55 -21.55)"/><path class="cls-2" d="M39.95,176v-8h101v8h-101Zm99.9-6.7H40.75v5.4h99.1v-5.4Z" transform="translate(-39.55 -21.55)"/><path d="M139.85,169.31v5.4H40.75v-5.4h99.1Z" transform="translate(-39.55 -21.55)"/><path class="cls-2" d="M39.55,71.1v-8h101v8h-101Zm99.9-6.7H40.35v5.4h99.1V64.4Z" transform="translate(-39.55 -21.55)"/><path d="M139.45,64.4v5.4H40.35V64.4h99.1Z" transform="translate(-39.55 -21.55)"/><path d="M142.4,171.23V22.54c1.58-.19,2.61-0.47,3.63-0.47,32.77,0,65.55-1.4,98.13.37,39.66,2.23,79,23.46,88.26,71.69,5.77,29.7,3,58.56-16,83.79-13.69,18.25-32.87,28.21-54.75,33a131.9,131.9,0,0,1-27.09,2.89c-28.86.37-57.73,0.09-86.59,0.09-1.49.09-3.17,0.09-5.59,0.09V176.63m6.24,31.66H154c26.72,0,53.35.28,80.07-.19a128.63,128.63,0,0,0,29.79-3.72c27.93-7.17,49.35-22.72,59.49-50.74,6.89-19.18,7.45-39,3.44-58.94C323.58,78.5,316.51,64.16,304.31,53c-18.71-17.22-41.43-24.86-66.57-25.14-27.93-.37-55.86-0.09-83.79-0.09h-5.21C148.64,88,148.64,147.77,148.64,208.29Z" transform="translate(-39.55 -21.55)"/><path d="M353.71,120.58c-0.09-1.68-.19-3.17-0.28-5h93v5H353.71Z" transform="translate(-39.55 -21.55)"/><path d="M343.26,105.88a11.61,11.61,0,1,0,11.61,11.61A11.61,11.61,0,0,0,343.26,105.88Zm0,16.72a5.12,5.12,0,1,1,5.11-5.12A5.12,5.12,0,0,1,343.26,122.61Z" transform="translate(-39.55 -21.55)"/></svg>