<svg id="Layer_1" data-name="Layer 1" xmlns="http://www.w3.org/2000/svg" viewBox="0 0 361.65 200.7"><title>orFive</title><g id="CytR0V.tif"><path d="M137,144.17c-8.71,19.65-15.14,25.6-19.6,27.05-1.05.34-4.64,3.27-10.14,5.32-1.78.66-2.95,3-4.41,4.51,1.95,1.1,3.9,2.22,5.87,3.28a2,2,0,0,0,1,0c19.91-1.67,39.93-2.53,59.7-5.2,32.65-4.41,59.72-19.15,78.57-47,5-7.42,9.47-15.27,13.75-23.16,1.59-2.91,3.21-4,6.5-3.92,22.49,0.14,45,.07,67.49.07,1.33,0,2.92.42,3.94-.16,1.51-.85,2.61-2.42,3.89-3.69-1.3-1.24-2.43-2.79-3.95-3.63-1-.57-2.61-0.15-3.94-0.15-22,0-44-.11-66,0.09-4.28,0-7.05-.82-9.07-5a109.73,109.73,0,0,0-8.44-13.56c-15.86-23.28-35.26-42.64-63.26-50-15.34-4-31.41-5.45-47.2-7.64-10-1.4-20.16-2.07-30.24-3.06h-7c-2.69,5-2,6.1,3.44,8.09,3.68,1.34,6.87,3.79,10.42,5.45,4.06,1.89,10,8.18,18.69,26.64C142.17,86.17,146.71,95.69,137,144.17ZM255.95,103.9c-11.13,23.06-25.61,43.25-48.86,55.69-15.23,8.15-31.79,11.7-48.71,13.69-11,1.3-22.06,2-34.7,3.07,22.75-20.86,27.39-47,27.49-74.3s-4.05-53.5-25.66-74.42c23.08,1.87,45.27,2.44,66.39,10,22.57,8.07,38.9,23.89,52.31,43.11,4,5.72,7.66,11.69,11.17,17.73C256.24,99.93,256.63,102.48,255.95,103.9Z"/></g><polyline points="145.91 98.69 145.91 105.99 27.42 105.99 27.42 98.69"/><polyline points="142.93 133.76 142.93 141.06 27.42 141.06 27.42 133.76"/><polyline points="142.93 65.56 142.93 72.85 27.42 72.85 27.42 65.56"/><polyline points="129.29 164.01 129.29 171.31 27.42 171.31 27.42 164.01"/><polyline points="127.55 33.55 127.55 40.85 26.73 40.85 26.73 33.55"/></svg>