<svg id="Layer_1" data-name="Layer 1" xmlns="http://www.w3.org/2000/svg" viewBox="0 0 354.66 197.94"><title>orFour</title><g id="CytR0V.tif"><path d="M22.06,55.26H132.37c-5.73-15-14.07-26.6-29.11-32.09-5.45-2-6.13-3.08-3.44-8.09h7c10.08,1,20.21,1.67,30.24,3.06,15.79,2.2,31.86,3.59,47.2,7.64,28,7.4,47.4,26.75,63.26,50A110.15,110.15,0,0,1,256,89.38c2,4.16,4.79,5,9.06,5,22-.2,44-0.09,66-0.09,1.33,0,2.91-.42,3.94.15,1.52,0.84,2.65,2.39,3.95,3.63-1.28,1.26-2.38,2.83-3.89,3.69-1,.58-2.61.16-3.94,0.16-22.5,0-45,.07-67.49-0.07-3.28,0-4.91,1-6.49,3.92-4.28,7.89-8.72,15.74-13.75,23.16-18.86,27.8-45.92,42.54-78.57,46.95-19.77,2.67-39.79,3.53-59.7,5.2a2,2,0,0,1-1,0c-2-1.06-3.92-2.18-5.87-3.28,1.46-1.54,2.63-3.85,4.41-4.51,15.06-5.64,23.5-17.2,29.74-32.36H25.5c-2.94,0-2.3,0-2.18-3.94s-0.46-3.72,2.43-3.7h3.5c32.5,0,68-.09,100.49.11,4.21,0,5.73-1.23,6.49-5.3a162.6,162.6,0,0,0-.08-60.59c-0.72-3.83-2.38-4.67-6-4.65-33.33.12-74.66,0.07-108,.07M119,173.08c12.64-1.09,23.71-1.77,34.7-3.07,16.93-2,33.48-5.54,48.71-13.69,23.25-12.45,37.73-32.64,48.86-55.69,0.69-1.42.29-4-.56-5.43-3.51-6-7.18-12-11.18-17.73-13.41-19.22-29.73-35-52.31-43.11-21.12-7.56-43.31-8.13-66.39-10,21.61,20.92,25.76,47.18,25.67,74.42S141.74,152.21,119,173.08Z"/></g><rect x="22.06" y="80.01" width="118.49" height="7.3"/><rect x="22.06" y="106.14" width="118.49" height="7.3"/></svg>