<svg id="Layer_1" data-name="Layer 1" xmlns="http://www.w3.org/2000/svg" viewBox="0 0 354.66 197.94"><title>or</title><g id="CytR0V.tif"><path d="M260.18,93.68a7.71,7.71,0,0,1-4.06-4,2.45,2.45,0,0,1-.15-0.28,110.94,110.94,0,0,0-8.44-13.56c-15.87-23.28-35.26-42.64-63.26-50-15.35-4-31.41-5.45-47.21-7.65-10-1.39-20.15-2.06-30.24-3.06h-7c-2.68,5-2,6.11,3.44,8.1,15,5.49,23.38,17.08,29.11,32.09h-6.82c-31.83,0-71.66,0-103.49,0l0.13,7.63c33.34,0,74.67,0,108-.07,3.59,0,5.24.83,6,4.65a162.65,162.65,0,0,1,.07,60.59c-0.75,4.07-2.28,5.33-6.49,5.3-32.49-.19-68-0.1-100.49-0.1h-3.5c-2.89,0-2.31-.18-2.43,3.7s-0.76,4,2.18,3.94c1,0,2,0,3,0H132.36c-6.23,15.16-14.67,26.73-29.73,32.37-1.79.66-3,3-4.42,4.51,2,1.1,3.9,2.22,5.88,3.28a1.94,1.94,0,0,0,1,0c19.9-1.67,39.92-2.54,59.69-5.2,32.66-4.41,59.72-19.15,78.58-47,4.78-7.06,9-14.52,13.12-22l0.63-1.15a7.1,7.1,0,0,1,3-3.28A6.36,6.36,0,0,1,260.18,93.68Zm-8.91,7c-11.13,23-25.61,43.25-48.86,55.69C187.18,164.47,170.63,168,153.7,170c-11,1.3-22.06,2-34.7,3.07,22.75-20.86,27.4-47,27.5-74.3s-4-53.5-25.67-74.42c23.08,1.87,45.28,2.44,66.4,10,22.57,8.07,38.89,23.89,52.3,43.11,4,5.72,7.67,11.69,11.18,17.72C251.55,96.66,252,99.2,251.26,100.63ZM335,94.42c-1-.57-2.6-0.15-3.94-0.15-18.24,0-36.5-.08-54.75,0l-6.34,0a6.33,6.33,0,0,1,0,7.54l6.33,0c18.26,0.07,36.53,0,54.79,0,1.34,0,2.92.42,3.94-.16,1.51-.85,2.61-2.42,3.89-3.69C337.61,96.81,336.47,95.26,335,94.42Z"/></g><rect x="22.06" y="80.01" width="118.49" height="7.3"/><rect x="22.06" y="106.14" width="118.49" height="7.3"/><path d="M276.26,94.28a12.11,12.11,0,1,0,0,7.6A12,12,0,0,0,276.26,94.28Zm-11.48,10.23a6.38,6.38,0,1,1,6.4-6.4,6.26,6.26,0,0,1-1.23,3.75A6.34,6.34,0,0,1,264.78,104.51Z"/><path d="M96.43,22.17q-1,1.56-1.91,3.1C114.74,37,126.39,65.86,126.39,99.64c0,29.36-14.21,56.18-30.33,70.09,0.63,1.58,1.29,3.17,1.9,4.78,19.64-12.12,36.82-41.72,36.82-74.87C134.78,62.35,120,31,96.43,22.17Z"/></svg>