<svg id="Layer_1" data-name="Layer 1" xmlns="http://www.w3.org/2000/svg" viewBox="0 0 328.89 188.37"><title>or</title><g id="CytR0V.tif"><path d="M244.93,92.41a7.16,7.16,0,0,1-4.49-3.55c-0.2-.32-0.38-0.66-0.56-1a110.94,110.94,0,0,0-8.44-13.56c-15.87-23.28-35.26-42.64-63.26-50-15.34-4-31.41-5.45-47.21-7.64-10-1.4-20.15-2.07-30.24-3.07h-7c-2.68,5-2,6.11,3.44,8.1,15,5.49,23.38,17.08,29.11,32.09H6l0.14,7.63c33.33,0,74.66,0,108-.07,3.59,0,5.24.83,6,4.66a165.42,165.42,0,0,1,2.79,24.93q0.12,3.64.08,7.3a164.25,164.25,0,0,1-2.79,28.35c-0.76,4.07-2.29,5.33-6.49,5.3-32.5-.19-68-0.1-100.5-0.1H9.66c-2.89,0-2.31-.19-2.43,3.69s-0.76,4,2.18,3.94c1,0,2,0,3,0H116.27c-6.23,15.17-14.67,26.73-29.73,32.37-1.79.66-3,3-4.42,4.51,2,1.1,3.9,2.22,5.88,3.28a1.94,1.94,0,0,0,1,0c19.9-1.67,39.92-2.54,59.69-5.2,32.66-4.41,59.72-19.15,78.58-47,4.93-7.28,9.29-15,13.5-22.71,0.09-.15.17-0.3,0.25-0.45,1.08-2,2.18-3.1,3.81-3.6A6.34,6.34,0,0,1,244.93,92.41Zm-9.75,6.68c-11.13,23.06-25.61,43.25-48.86,55.69-15.23,8.15-31.78,11.7-48.71,13.69-11,1.3-22.06,2-34.7,3.07,22.75-20.86,27.4-47,27.5-74.3s-4.05-53.5-25.67-74.42c23.08,1.87,45.28,2.44,66.4,10,22.57,8.07,38.89,23.89,52.3,43.11,4,5.72,7.67,11.69,11.18,17.73C235.47,95.12,235.87,97.67,235.18,99.09Zm83.69-6.21c-1-.57-2.6-0.15-3.94-0.15-17.88,0-35.78-.07-53.67,0l-6.35,0a6.33,6.33,0,0,1,0,7.55q3.16,0,6.33,0c17.91,0,35.81,0,53.71,0,1.34,0,2.93.42,3.94-.16,1.51-.85,2.62-2.42,3.89-3.69C321.53,95.27,320.4,93.72,318.87,92.88Z"/></g><rect x="6.66" y="90.88" width="118.49" height="7.3"/><path d="M261.26,92.74a12.1,12.1,0,1,0,0,7.61A12,12,0,0,0,261.26,92.74ZM249.78,103a6.38,6.38,0,1,1,6.4-6.4,6.26,6.26,0,0,1-1.23,3.75A6.34,6.34,0,0,1,249.78,103Z"/><path d="M79.43,21.17q-1,1.56-1.91,3.1C97.74,36,109.39,64.86,109.39,98.64c0,29.36-14.21,56.18-30.33,70.09,0.63,1.58,1.29,3.17,1.9,4.78,19.64-12.12,36.82-41.72,36.82-74.87C117.78,61.35,103,30,79.43,21.17Z"/></svg>