<svg id="Layer_1" data-name="Layer 1" xmlns="http://www.w3.org/2000/svg" viewBox="0 0 328.89 188.37"><title>or</title><g id="CytR0V.tif"><path d="M318.88,92.88c-1-.57-2.61-0.15-3.94-0.15-22,0-44-.11-66,0.09-4.27,0-7-.82-9.06-5a110.16,110.16,0,0,0-8.44-13.56c-15.87-23.28-35.26-42.64-63.26-50-15.34-4.05-31.41-5.45-47.2-7.64-10-1.4-20.16-2.07-30.24-3.06h-7c-2.69,5-2,6.11,3.44,8.09,15,5.49,23.38,17.08,29.11,32.09H6l0.13,7.63c33.33,0,74.66.05,108-.07,3.59,0,5.25.83,6,4.65a162.6,162.6,0,0,1,.08,60.59c-0.76,4.07-2.28,5.33-6.49,5.3-32.5-.19-68-0.11-100.49-0.11H9.67c-2.89,0-2.32-.18-2.43,3.7s-0.76,4,2.18,3.94H116.28c-6.24,15.16-14.67,26.73-29.74,32.36-1.78.67-3,3-4.41,4.51,2,1.1,3.9,2.22,5.87,3.28a2,2,0,0,0,1,0c19.91-1.67,39.92-2.54,59.7-5.2,32.65-4.4,59.72-19.15,78.57-46.95,5-7.42,9.47-15.27,13.75-23.16,1.58-2.92,3.21-3.95,6.49-3.92,22.5,0.15,45,.08,67.49.07,1.33,0,2.92.42,3.94-.16,1.51-.85,2.61-2.42,3.89-3.69C321.53,95.26,320.4,93.72,318.88,92.88Zm-83.69,6.21c-11.13,23.06-25.61,43.25-48.86,55.69-15.23,8.15-31.78,11.7-48.71,13.69-11,1.29-22.06,2-34.7,3.07,22.75-20.86,27.4-47,27.5-74.3s-4.05-53.5-25.67-74.42c23.08,1.87,45.28,2.44,66.39,10,22.57,8.08,38.9,23.9,52.31,43.11,4,5.72,7.67,11.69,11.18,17.73C235.47,95.12,235.87,97.66,235.18,99.09Z"/></g><rect x="6.66" y="90.88" width="118.49" height="7.3"/><path d="M78.93,21.59q-1,1.56-1.91,3.1c20.23,11.72,31.87,40.59,31.87,74.37,0,29.36-14.21,56.18-30.33,70.09,0.63,1.58,1.29,3.17,1.9,4.78,19.64-12.12,36.82-41.72,36.82-74.87C117.28,61.77,102.52,30.45,78.93,21.59Z"/></svg>